<svg width="180" height="180" viewBox="0 0 180 180" fill="none" xmlns="http://www.w3.org/2000/svg">
  <!-- 背景圆 -->
  <circle cx="90" cy="90" r="90" fill="#42b883"/>
  
  <!-- 主图标 -->
  <g transform="translate(30, 30)">
    <!-- 文档图标 -->
    <rect x="20" y="20" width="80" height="100" rx="8" fill="white" stroke="#369870" stroke-width="2"/>
    
    <!-- 文档线条 -->
    <line x1="30" y1="35" x2="90" y2="35" stroke="#42b883" stroke-width="2" stroke-linecap="round"/>
    <line x1="30" y1="45" x2="85" y2="45" stroke="#42b883" stroke-width="2" stroke-linecap="round"/>
    <line x1="30" y1="55" x2="90" y2="55" stroke="#42b883" stroke-width="2" stroke-linecap="round"/>
    <line x1="30" y1="65" x2="80" y2="65" stroke="#42b883" stroke-width="2" stroke-linecap="round"/>
    
    <!-- API 符号 -->
    <circle cx="60" cy="85" r="15" fill="#42b883"/>
    <text x="60" y="90" text-anchor="middle" fill="white" font-family="Arial, sans-serif" font-size="12" font-weight="bold">API</text>
    
    <!-- 齿轮图标 -->
    <g transform="translate(75, 100)">
      <circle cx="0" cy="0" r="8" fill="#369870"/>
      <circle cx="0" cy="0" r="4" fill="white"/>
      <rect x="-2" y="-10" width="4" height="4" fill="#369870"/>
      <rect x="-2" y="6" width="4" height="4" fill="#369870"/>
      <rect x="-10" y="-2" width="4" height="4" fill="#369870"/>
      <rect x="6" y="-2" width="4" height="4" fill="#369870"/>
    </g>
  </g>
  
  <!-- 装饰元素 -->
  <circle cx="150" cy="30" r="3" fill="rgba(255,255,255,0.3)"/>
  <circle cx="160" cy="50" r="2" fill="rgba(255,255,255,0.3)"/>
  <circle cx="30" cy="150" r="2" fill="rgba(255,255,255,0.3)"/>
  <circle cx="20" cy="160" r="3" fill="rgba(255,255,255,0.3)"/>
</svg>
